<svg width="40" height="40" viewBox="0 0 40 40" fill="none" xmlns="http://www.w3.org/2000/svg">
<circle cx="20" cy="20" r="20" fill="#406AF6"/>
<path d="M16.704 18.672C16.672 18.096 16.7307 17.5627 16.88 17.072C17.0293 16.5813 17.2587 16.16 17.568 15.808C17.888 15.4453 18.2827 15.1627 18.752 14.96C19.2213 14.7573 19.7547 14.656 20.352 14.656C20.8427 14.656 21.3013 14.7307 21.728 14.88C22.1653 15.0187 22.544 15.2267 22.864 15.504C23.184 15.7707 23.4347 16.1067 23.616 16.512C23.808 16.9173 23.904 17.3867 23.904 17.92C23.904 18.4213 23.824 18.864 23.664 19.248C23.5147 19.632 23.312 19.9787 23.056 20.288C22.8 20.5867 22.5067 20.8587 22.176 21.104C21.8453 21.3493 21.504 21.584 21.152 21.808C20.8 22.0213 20.448 22.2347 20.096 22.448C19.744 22.6507 19.4187 22.8693 19.12 23.104C18.832 23.3387 18.5813 23.5947 18.368 23.872C18.1653 24.1387 18.032 24.448 17.968 24.8H23.792V26H16.384C16.4373 25.328 16.5547 24.7573 16.736 24.288C16.928 23.808 17.168 23.392 17.456 23.04C17.744 22.688 18.0693 22.3787 18.432 22.112C18.7947 21.8453 19.1733 21.5947 19.568 21.36C20.048 21.0613 20.4693 20.7893 20.832 20.544C21.1947 20.288 21.4933 20.032 21.728 19.776C21.9733 19.52 22.1547 19.2427 22.272 18.944C22.4 18.6453 22.464 18.2987 22.464 17.904C22.464 17.5947 22.4053 17.3173 22.288 17.072C22.1707 16.816 22.0107 16.5973 21.808 16.416C21.616 16.2347 21.3867 16.096 21.12 16C20.8533 15.904 20.5707 15.856 20.272 15.856C19.8773 15.856 19.536 15.9413 19.248 16.112C18.9707 16.272 18.7413 16.4853 18.56 16.752C18.3787 17.0187 18.2453 17.3227 18.16 17.664C18.0853 17.9947 18.0533 18.3307 18.064 18.672H16.704Z" fill="white"/>
</svg>
