<svg width="40" height="40" viewBox="0 0 40 40" fill="none" xmlns="http://www.w3.org/2000/svg">
<circle cx="20" cy="20" r="20" fill="#406AF6"/>
<path d="M19.488 19.52C19.5413 19.5307 19.5893 19.536 19.632 19.536C19.6853 19.536 19.7387 19.536 19.792 19.536H20.08C20.368 19.536 20.64 19.4987 20.896 19.424C21.1627 19.3387 21.392 19.2213 21.584 19.072C21.7867 18.912 21.9467 18.7147 22.064 18.48C22.1813 18.2453 22.24 17.9787 22.24 17.68C22.24 17.072 22.048 16.6187 21.664 16.32C21.28 16.0107 20.8 15.856 20.224 15.856C19.8613 15.856 19.5413 15.9253 19.264 16.064C18.9973 16.192 18.7733 16.368 18.592 16.592C18.4213 16.816 18.2933 17.0773 18.208 17.376C18.1227 17.6747 18.08 17.9893 18.08 18.32H16.72C16.7413 17.776 16.8267 17.28 16.976 16.832C17.136 16.384 17.36 16 17.648 15.68C17.936 15.36 18.2933 15.1093 18.72 14.928C19.1573 14.7467 19.6587 14.656 20.224 14.656C20.7147 14.656 21.168 14.72 21.584 14.848C22.0107 14.9653 22.3787 15.1467 22.688 15.392C22.9973 15.6373 23.2373 15.952 23.408 16.336C23.5893 16.72 23.68 17.1733 23.68 17.696C23.68 18.208 23.5307 18.6613 23.232 19.056C22.9333 19.4507 22.56 19.7493 22.112 19.952V19.984C22.8053 20.1333 23.3173 20.4587 23.648 20.96C23.9893 21.4613 24.16 22.0533 24.16 22.736C24.16 23.3013 24.0533 23.8027 23.84 24.24C23.6373 24.6667 23.36 25.024 23.008 25.312C22.656 25.6 22.24 25.8187 21.76 25.968C21.2907 26.1067 20.7893 26.176 20.256 26.176C19.68 26.176 19.1573 26.096 18.688 25.936C18.2187 25.776 17.8187 25.5413 17.488 25.232C17.1573 24.912 16.9013 24.5227 16.72 24.064C16.5493 23.6053 16.4693 23.0827 16.48 22.496H17.84C17.8613 23.232 18.0747 23.8347 18.48 24.304C18.8853 24.7627 19.4773 24.992 20.256 24.992C20.5867 24.992 20.9013 24.944 21.2 24.848C21.4987 24.7413 21.76 24.5973 21.984 24.416C22.208 24.224 22.384 23.9947 22.512 23.728C22.6507 23.4507 22.72 23.1413 22.72 22.8C22.72 22.448 22.656 22.1387 22.528 21.872C22.4 21.5947 22.2293 21.3653 22.016 21.184C21.8027 20.992 21.5467 20.8533 21.248 20.768C20.96 20.672 20.6453 20.624 20.304 20.624C20.016 20.624 19.744 20.64 19.488 20.672V19.52Z" fill="white"/>
</svg>
