<svg width="40" height="40" viewBox="0 0 40 40" fill="none" xmlns="http://www.w3.org/2000/svg">
<circle cx="20" cy="20" r="20" fill="#406AF6"/>
<path d="M23.52 16.048H18.944L18.336 19.312L18.368 19.344C18.6133 19.0667 18.928 18.864 19.312 18.736C19.7067 18.5973 20.096 18.528 20.48 18.528C20.9813 18.528 21.456 18.608 21.904 18.768C22.352 18.928 22.7413 19.1733 23.072 19.504C23.4027 19.824 23.664 20.2293 23.856 20.72C24.048 21.2 24.144 21.7653 24.144 22.416C24.144 22.896 24.0587 23.3653 23.888 23.824C23.728 24.272 23.4827 24.672 23.152 25.024C22.8213 25.376 22.4053 25.6587 21.904 25.872C21.4133 26.0747 20.8373 26.176 20.176 26.176C19.6853 26.176 19.2213 26.1067 18.784 25.968C18.3573 25.8187 17.9787 25.6107 17.648 25.344C17.3173 25.0667 17.056 24.7253 16.864 24.32C16.672 23.9147 16.5707 23.456 16.56 22.944H17.92C17.9413 23.232 18.0107 23.504 18.128 23.76C18.256 24.0053 18.4213 24.224 18.624 24.416C18.8373 24.5973 19.0827 24.7413 19.36 24.848C19.648 24.944 19.9627 24.992 20.304 24.992C20.624 24.992 20.928 24.9387 21.216 24.832C21.5147 24.7147 21.7707 24.544 21.984 24.32C22.208 24.096 22.384 23.8187 22.512 23.488C22.64 23.1467 22.704 22.752 22.704 22.304C22.704 21.9307 22.64 21.5893 22.512 21.28C22.3947 20.96 22.224 20.688 22 20.464C21.776 20.2293 21.504 20.048 21.184 19.92C20.8747 19.792 20.528 19.728 20.144 19.728C19.696 19.728 19.296 19.8293 18.944 20.032C18.6027 20.224 18.2987 20.48 18.032 20.8L16.864 20.736L17.92 14.848H23.52V16.048Z" fill="white"/>
</svg>
