<svg width="40" height="40" viewBox="0 0 40 40" fill="none" xmlns="http://www.w3.org/2000/svg">
<circle cx="20" cy="20" r="20" fill="#406AF6"/>
<path d="M22.624 17.552C22.56 17.04 22.3627 16.6293 22.032 16.32C21.7013 16.0107 21.264 15.856 20.72 15.856C20.144 15.856 19.68 16 19.328 16.288C18.976 16.5653 18.6987 16.9227 18.496 17.36C18.304 17.7867 18.1707 18.2507 18.096 18.752C18.0213 19.2533 17.9787 19.7227 17.968 20.16L18 20.192C18.32 19.6693 18.7147 19.2907 19.184 19.056C19.664 18.8213 20.2133 18.704 20.832 18.704C21.376 18.704 21.8613 18.8 22.288 18.992C22.7253 19.1733 23.088 19.4293 23.376 19.76C23.6747 20.0907 23.904 20.48 24.064 20.928C24.224 21.376 24.304 21.8613 24.304 22.384C24.304 22.8 24.24 23.232 24.112 23.68C23.984 24.128 23.7707 24.5387 23.472 24.912C23.184 25.2747 22.7947 25.5787 22.304 25.824C21.824 26.0587 21.2267 26.176 20.512 26.176C19.6693 26.176 18.992 26.0053 18.48 25.664C17.968 25.3227 17.5733 24.8853 17.296 24.352C17.0187 23.8187 16.832 23.232 16.736 22.592C16.6507 21.952 16.608 21.3333 16.608 20.736C16.608 19.9573 16.672 19.2053 16.8 18.48C16.9387 17.744 17.168 17.0933 17.488 16.528C17.808 15.9627 18.2347 15.5093 18.768 15.168C19.3013 14.8267 19.9733 14.656 20.784 14.656C21.7227 14.656 22.4693 14.9067 23.024 15.408C23.5787 15.8987 23.8987 16.6133 23.984 17.552H22.624ZM20.576 19.904C20.192 19.904 19.856 19.9733 19.568 20.112C19.28 20.24 19.0347 20.4213 18.832 20.656C18.6293 20.88 18.4747 21.152 18.368 21.472C18.272 21.7813 18.224 22.112 18.224 22.464C18.224 22.816 18.2773 23.1467 18.384 23.456C18.4907 23.7653 18.64 24.032 18.832 24.256C19.0347 24.48 19.28 24.6613 19.568 24.8C19.8667 24.928 20.2027 24.992 20.576 24.992C20.9493 24.992 21.2747 24.928 21.552 24.8C21.84 24.6613 22.08 24.4747 22.272 24.24C22.464 24.0053 22.608 23.7387 22.704 23.44C22.8107 23.1307 22.864 22.8107 22.864 22.48C22.864 22.128 22.816 21.7973 22.72 21.488C22.6347 21.168 22.496 20.896 22.304 20.672C22.112 20.4373 21.872 20.2507 21.584 20.112C21.296 19.9733 20.96 19.904 20.576 19.904Z" fill="white"/>
</svg>
