<svg width="40" height="40" viewBox="0 0 40 40" fill="none" xmlns="http://www.w3.org/2000/svg">
<circle cx="20" cy="20" r="20" fill="#406AF6"/>
<path d="M24.144 16.016C23.568 16.5813 23.0293 17.2533 22.528 18.032C22.0267 18.8107 21.5787 19.6427 21.184 20.528C20.8 21.4133 20.4853 22.3253 20.24 23.264C19.9947 24.2027 19.8453 25.1147 19.792 26H18.272C18.336 25.04 18.4907 24.1067 18.736 23.2C18.992 22.2827 19.3173 21.408 19.712 20.576C20.1067 19.7333 20.56 18.9387 21.072 18.192C21.5947 17.4453 22.1547 16.7573 22.752 16.128H16.8V14.848H24.144V16.016Z" fill="white"/>
</svg>
