<svg width="44" height="44" viewBox="0 0 44 44" fill="none" xmlns="http://www.w3.org/2000/svg">
<circle cx="22" cy="22" r="22" fill="white"/>
<g clip-path="url(#clip0_1574_758)">
<path d="M19.9731 28H24.0271C24.1591 26.798 24.7721 25.806 25.7671 24.723C25.8801 24.601 26.5991 23.856 26.6841 23.75C27.3904 22.8676 27.8331 21.8037 27.9612 20.6807C28.0893 19.5578 27.8977 18.4215 27.4083 17.4027C26.919 16.3839 26.1518 15.5241 25.1952 14.9222C24.2386 14.3202 23.1314 14.0008 22.0012 14.0005C20.8709 14.0003 19.7636 14.3193 18.8067 14.9208C17.8499 15.5223 17.0823 16.3818 16.5925 17.4004C16.1028 18.419 15.9106 19.5552 16.0383 20.6782C16.1659 21.8012 16.6082 22.8653 17.3141 23.748C17.4001 23.855 18.1211 24.601 18.2321 24.722C19.2281 25.806 19.8411 26.798 19.9731 28ZM24.0001 30H20.0001V31H24.0001V30ZM15.7541 25C14.8123 23.8233 14.222 22.4044 14.0513 20.9069C13.8807 19.4094 14.1365 17.8942 14.7893 16.5357C15.4422 15.1773 16.4655 14.0308 17.7414 13.2286C19.0174 12.4263 20.494 12.0007 22.0012 12.001C23.5084 12.0012 24.9848 12.4272 26.2605 13.2299C27.5362 14.0326 28.5591 15.1794 29.2115 16.538C29.864 17.8967 30.1193 19.412 29.9481 20.9095C29.777 22.4069 29.1863 23.8256 28.2441 25.002C27.6241 25.774 26.0001 27 26.0001 28.5V31C26.0001 31.5304 25.7894 32.0391 25.4143 32.4142C25.0392 32.7893 24.5305 33 24.0001 33H20.0001C19.4696 33 18.9609 32.7893 18.5859 32.4142C18.2108 32.0391 18.0001 31.5304 18.0001 31V28.5C18.0001 27 16.3751 25.774 15.7541 25ZM23.0001 20.004H25.5001L21.0001 26.004V22.004H18.5001L23.0001 16V20.005V20.004Z" fill="#E7993C"/>
</g>
<defs>
<clipPath id="clip0_1574_758">
<rect width="24" height="24" fill="white" transform="translate(9.99988 10)"/>
</clipPath>
</defs>
</svg>
