<svg width="134" height="50" viewBox="0 0 134 50" fill="none" xmlns="http://www.w3.org/2000/svg">
<rect width="134" height="50" rx="10" fill="#F7F7F8"/>
<g clip-path="url(#clip0_1506_1811)">
<path d="M39.1721 24.2534C39.1721 25.1688 38.9415 25.7956 38.4672 26.1695C38.0587 26.4915 37.4678 26.6414 36.6073 26.6414H35.1596V21.9905H36.6073C38.3331 21.9905 39.1721 22.7307 39.1721 24.2534ZM40.0675 21.1716C39.2159 20.5217 37.9921 20.1922 36.4301 20.1922H33.0026V32.9775H35.1596V28.4577H36.4655C37.9789 28.4577 39.1721 28.1342 40.0116 27.4963C40.9564 26.7785 41.4354 25.6814 41.4354 24.2356C41.4354 22.8953 40.9751 21.8644 40.0675 21.1716Z" fill="#484961"/>
<path d="M47.2442 22.8719C46.6445 22.8719 46.1105 23.0631 45.6577 23.4401C45.393 23.6605 45.1547 23.9464 44.9452 24.2943L44.8147 23.0863H42.948V32.9775H45.0517V27.2483C45.196 26.6742 45.738 24.9562 47.0492 24.9562C47.358 24.9562 47.5327 24.9871 47.8075 25.0563L48.0505 25.1174L48.4397 23.0407L48.2235 22.9862C47.935 22.9136 47.5782 22.8719 47.2442 22.8719Z" fill="#484961"/>
<path d="M52.935 31.1791C51.4715 31.1791 50.7602 30.0824 50.7602 27.8265C50.7602 26.6673 50.9575 25.7951 51.347 25.2341C51.7102 24.7104 52.2355 24.456 52.9525 24.456C53.659 24.456 54.176 24.7093 54.5332 25.2307C54.9155 25.7888 55.1095 26.6562 55.1095 27.8086C55.1095 30.0766 54.3982 31.1791 52.935 31.1791ZM52.9525 22.6575C51.597 22.6575 50.4657 23.1623 49.6815 24.1172C48.9297 25.0323 48.5322 26.3149 48.5322 27.8265C48.5322 29.3651 48.9267 30.6543 49.6732 31.5544C50.4452 32.4854 51.573 32.9775 52.935 32.9775C54.2827 32.9775 55.4087 32.4727 56.1907 31.5175C56.941 30.6015 57.3375 29.3191 57.3375 27.8086C57.3375 26.2686 56.946 24.9796 56.206 24.0812C55.4385 23.1499 54.3135 22.6575 52.9525 22.6575Z" fill="#484961"/>
<path d="M63.5187 30.7678C63.0942 31.0311 62.7602 31.1434 62.4017 31.1434C61.844 31.1434 61.5212 30.9543 61.5212 29.9881V24.5989H63.6497L63.9192 22.8719H61.5212V20.5193L59.4175 20.7728V22.8719H57.9282V24.5989H59.4175V30.0059C59.4175 31.8944 60.4212 32.9775 62.1712 32.9775C63.0222 32.9775 63.8157 32.7322 64.405 32.2868L64.57 32.1621L63.7292 30.6373L63.5187 30.7678Z" fill="#484961"/>
<path d="M69.1385 31.1791C67.675 31.1791 66.9637 30.0824 66.9637 27.8265C66.9637 26.6673 67.1612 25.7951 67.5505 25.2341C67.9137 24.7104 68.439 24.456 69.1562 24.456C69.8625 24.456 70.3795 24.7093 70.7367 25.2307C71.1192 25.7888 71.313 26.6562 71.313 27.8086C71.313 30.0766 70.6017 31.1791 69.1385 31.1791ZM69.1562 22.6575C67.8005 22.6575 66.6692 23.1623 65.885 24.1172C65.1332 25.0323 64.736 26.3149 64.736 27.8265C64.736 29.3651 65.1305 30.6543 65.8767 31.5544C66.6487 32.4854 67.7765 32.9775 69.1385 32.9775C70.4865 32.9775 71.6122 32.4727 72.3945 31.5175C73.1445 30.6015 73.541 29.3191 73.541 27.8086C73.541 26.2686 73.1497 24.9796 72.4095 24.0812C71.642 23.1499 70.517 22.6575 69.1562 22.6575Z" fill="#484961"/>
<path d="M80.2362 22.8719C79.2167 22.8719 78.2052 23.3056 77.4417 24.0527L77.3484 23.0863H75.4969V32.9775H77.6007V25.9896C77.9177 25.5383 78.6787 24.6345 79.6867 24.6345C80.597 24.6345 80.9039 24.9802 80.9039 26.0042V32.9775H83.0077V25.8971C83.0077 24.923 82.7962 24.2017 82.3612 23.6917C81.897 23.1477 81.1822 22.8719 80.2362 22.8719Z" fill="#484961"/>
<path d="M93.6562 20.1922L91.2067 28.6962L88.6732 20.1922H86.0107L84.9609 32.9775H87.0322L87.5274 26.4517C87.5989 25.536 87.6417 24.4371 87.6649 23.5933L90.1854 31.6734H92.1477L94.5704 23.6039C94.6002 24.4065 94.6519 25.4649 94.7327 26.4532L95.2829 32.9775H97.3879L96.3382 20.1922H93.6562Z" fill="#484961"/>
<path d="M104.075 28.1181V30.1305C103.567 30.8856 102.931 31.2683 102.184 31.2683C101.169 31.2683 100.736 30.8159 100.736 29.7557C100.736 29.2243 100.9 28.8391 101.239 28.5782C101.636 28.2729 102.293 28.1181 103.194 28.1181H104.075ZM106.178 30.3988V25.9683C106.178 24.4578 105.547 22.6573 102.538 22.6573C101.523 22.6573 100.446 22.8667 99.336 23.2795L99.1175 23.3608L99.699 25.0214L99.9218 24.9424C100.762 24.6445 101.625 24.4736 102.29 24.4736C103.574 24.4736 104.075 24.9177 104.075 26.0577V26.5519H103.106C101.647 26.5519 100.505 26.8313 99.7095 27.3821C98.9003 27.9428 98.4725 28.7883 98.4725 29.8272C98.4725 31.7408 99.7553 32.9774 101.74 32.9774C102.351 32.9774 102.913 32.8604 103.41 32.6296C103.81 32.4442 104.161 32.1887 104.459 31.8676C104.795 32.5035 105.372 32.8672 106.213 32.9755L106.404 33L106.932 31.4532L106.716 31.3724C106.344 31.2338 106.178 31.0603 106.178 30.3988Z" fill="#484961"/>
<path d="M109.735 18.7089C109.351 18.7089 109 18.8468 108.749 19.0972C108.501 19.3445 108.365 19.6846 108.365 20.0548C108.365 20.8449 108.941 21.4185 109.735 21.4185C110.122 21.4185 110.475 21.2802 110.73 21.0289C110.984 20.7781 111.124 20.4322 111.124 20.0548C111.124 19.2875 110.527 18.7089 109.735 18.7089Z" fill="#484961"/>
<path d="M108.684 32.9775H110.787V23.0863H108.684V32.9775Z" fill="#484961"/>
<path d="M116.414 30.9628L116.189 31.0532C116.039 31.114 115.871 31.1434 115.675 31.1434C115.495 31.1434 115.326 31.1434 115.326 30.6313V18.8578L113.222 19.1113V30.4884C113.222 31.3169 113.425 31.9534 113.825 32.3803C114.197 32.7766 114.717 32.9775 115.373 32.9775C115.848 32.9775 116.33 32.8615 116.805 32.6326L117 32.5385L116.414 30.9628Z" fill="#484961"/>
<path d="M25.8449 24.0164H19.4392V22.0751C20.0891 19.4786 22.6421 19.4429 22.6421 19.4429C22.6421 19.4429 25.1949 19.4786 25.8449 22.0751V24.0164ZM22.6421 17.0013C22.6421 17.0013 17.9646 16.8466 17 22.0751V25.6361C17 25.6361 17.0399 26.0173 18.1036 26.7915C19.1673 27.5655 21.9211 29.7451 22.6421 29.7451C23.363 29.7451 26.1168 27.5655 27.1805 26.7915C28.2442 26.0173 28.2841 25.6361 28.2841 25.6361V22.0751C27.3193 16.8466 22.6421 17.0013 22.6421 17.0013Z" fill="#484961"/>
<path d="M22.6421 30.5469C22.6421 30.5469 21.9172 30.4754 21.3498 30.0784C20.7825 29.6815 17 26.958 17 26.958V32.3493C17 32.3493 17.032 32.9766 17.7176 32.9766C18.403 32.9766 22.6421 32.9766 22.6421 32.9766C22.6421 32.9766 26.8811 32.9766 27.5665 32.9766C28.2521 32.9766 28.2841 32.3493 28.2841 32.3493V26.958C28.2841 26.958 24.5016 29.6815 23.9342 30.0784C23.3669 30.4754 22.6421 30.5469 22.6421 30.5469Z" fill="#484961"/>
</g>
<defs>
<clipPath id="clip0_1506_1811">
<rect width="100" height="16" fill="white" transform="translate(17 17)"/>
</clipPath>
</defs>
</svg>
